
<svg width="1013px" height="443px" viewBox="0 0 1013 443" version="1.1" xmlns="http://www.w3.org/2000/svg" xmlns:xlink="http://www.w3.org/1999/xlink">
    <defs>
        <linearGradient x1="20.9917917%" y1="44.8209758%" x2="119.64723%" y2="73.186062%" id="linearGradient-1">
            <stop stop-color="#FF71A7" offset="0%"></stop>
            <stop stop-color="#F2E2E2" offset="100%"></stop>
        </linearGradient>
    </defs>
    <g id="Page-1" stroke="none" stroke-width="1" fill="none" fill-rule="evenodd">
        <g id="Desktop-HD" transform="translate(-218.000000, -330.000000)">
            <g id="Group" transform="translate(165.236694, 44.913276)">
                <path d="M998.983565,690.895226 C798.553592,578.967946 672.301782,501.594217 620.228136,458.77404 C469.682701,334.980474 258.405248,50.5143967 122.609933,196.953612 C10.4792615,317.873303 63.5582708,536.735623 317.977207,633.852113 C331.002194,638.823995 344.554878,643.476789 358.640109,647.781019 C445.7714,674.407 659.219219,688.778402 998.983565,690.895226 Z" id="Path" fill="url(#linearGradient-1)" transform="translate(532.926772, 423.474548) rotate(-22.000000) translate(-532.926772, -423.474548) "></path>
                <path d="M1065.22466,496.834735 C772.19673,596.180808 561.425491,647.3072 432.910939,650.213912 C304.396386,653.120624 177.804929,585.261443 53.1365661,446.636371 C54.9439892,469.763347 57.3982148,486.496135 60.4992429,496.834735 C107.927234,654.956183 211.948541,730.971872 362.350753,727.570111 C527.503796,723.834718 761.795097,646.922926 1065.22466,496.834735 Z" id="Path-2" fill="#FF9CDA"></path>
            </g>
        </g>
    </g>
</svg>