
<svg width="431px" height="305px" viewBox="0 0 431 305" version="1.1" xmlns="http://www.w3.org/2000/svg" xmlns:xlink="http://www.w3.org/1999/xlink">
    <g id="Animals" stroke="none" stroke-width="1" fill="none" fill-rule="evenodd">
        <g id="Turtle" transform="translate(-84.000000, -158.000000)">
            <polygon id="Path-173" fill="#2E82A6" points="116.049376 388.929382 88.4034836 358.328936 84.4386957 384.332056"></polygon>
            <polygon id="Path-174" fill="#2E82A6" points="116.049376 388.929382 149.239079 375.455535 100.244036 371.619186"></polygon>
            <polygon id="Path-175" fill="#2E82A6" points="100.244036 371.619186 88.4034836 358.328936 115.175803 346.302738"></polygon>
            <polygon id="Path-176" fill="#2E82A6" points="100.244036 371.619186 149.239079 375.455535 169.684993 366.474471"></polygon>
            <polygon id="Path-177" fill="#2E82A6" points="115.175803 346.302738 100.244036 371.619186 121.056339 370.081478"></polygon>
            <polygon id="Path-178" fill="#2E82A6" points="121.056339 370.081478 115.175803 346.302738 149.036992 368.019001"></polygon>
            <polygon id="Path-179" fill="#2E82A6" points="115.175803 346.302738 134.964514 329.230356 149.036992 368.019001"></polygon>
            <polygon id="Path-180" fill="#2E82A6" points="134.964514 329.230356 160.557743 320.756706 149.036992 368.019001"></polygon>
            <polygon id="Path-181" fill="#2E82A6" points="149.036992 368.019001 190.117188 364.846552 156.585036 336.981546"></polygon>
            <polygon id="Path-182" fill="#2E82A6" points="160.557743 320.756706 189.097842 340.147699 156.585036 336.981546"></polygon>
            <polygon id="Path-183" fill="#2E82A6" points="156.585036 336.981546 189.097842 340.147699 190.117188 364.846552"></polygon>
            <polygon id="Path-184" fill="#2E82A6" points="190.117188 364.846552 230.340545 369.363386 189.097842 340.147699"></polygon>
            <polygon id="Path-185" fill="#1368A4" points="145.106497 296.578241 152.197758 313.597822 175.455003 279.026692"></polygon>
            <polygon id="Path-186" fill="#1368A4" points="152.197758 313.597822 183.691829 287.456754 175.455003 279.026692"></polygon>
            <polygon id="Path-187" fill="#1368A4" points="184.350853 288.022272 152.772111 314.075821 196.768797 300.55904"></polygon>
            <polygon id="Path-188" fill="#1368A4" points="196.768797 300.55904 194.757685 343 152.772111 314.075821"></polygon>
            <polygon id="Path-189" fill="#1368A4" points="197.578213 300.128732 176.080885 278.862212 225.186884 264.166479"></polygon>
            <polygon id="Path-190" fill="#1368A4" points="197.578213 301.049046 195.681846 343.592351 231.826385 369.363386"></polygon>
            <polygon id="Path-191" fill="#1368A4" points="198.449288 300.55904 226.398441 264.166479 247.035083 288.022272"></polygon>
            <polygon id="Path-192" fill="#1368A4" points="247.035083 288.022272 236.11948 319.061365 198.449288 300.55904"></polygon>
            <polygon id="Path-193" fill="#1368A4" points="197.578213 301.049046 235.56373 320.064391 231.826385 369.363386"></polygon>
            <polygon id="Path-194" fill="#1368A4" points="232.706623 369.363386 265.766851 375.455535 296.69929 368.019001"></polygon>
            <polygon id="Path-195" fill="#1368A4" points="232.706623 369.363386 236.80921 320.511502 296.69929 368.019001"></polygon>
            <polygon id="Path-196" fill="#1368A4" points="296.69929 368.019001 301.112547 317.652244 273.203562 325.373823"></polygon>
            <polygon id="Path-197" fill="#1368A4" points="236.80921 320.511502 273.203562 325.373823 296.69929 368.019001"></polygon>
            <polygon id="Path-198" fill="#1368A4" points="247.838567 288.683791 273.203562 324.576536 237.210374 319.58615"></polygon>
            <polygon id="Path-199" fill="#1368A4" points="273.203562 324.576536 301.112547 316.714177 300 284.916426"></polygon>
            <polygon id="Path-200" fill="#1368A4" points="247.838567 288.683791 300 284.916426 273.203562 324.576536"></polygon>
            <polygon id="Path-201" fill="#1368A4" points="300 284.916426 281.269395 267.484226 247.838567 288.683791"></polygon>
            <polygon id="Path-202" fill="#1368A4" points="227.511394 263.747302 253.91969 252.862121 247.838567 287.406556"></polygon>
            <polygon id="Path-203" fill="#1368A4" points="247.838567 287.406556 280.53441 266.850093 280.53441 253.693916"></polygon>
            <polygon id="Path-204" fill="#1368A4" points="280.53441 253.693916 253.91969 252.862121 247.838567 287.406556"></polygon>
            <polygon id="Path-205" fill="#1368A4" points="280.53441 253.693916 267.665906 248.122968 253.91969 252.862121"></polygon>
            <polygon id="Path-206" fill="#1368A4" points="280.963828 253.304048 308.963523 242.273577 268.486344 248.025211"></polygon>
            <polygon id="Path-207" fill="#1368A4" points="308.963523 242.273577 283.006607 242.273577 268.486344 248.025211"></polygon>
            <polygon id="Path-208" fill="#1368A4" points="297.925222 368.019001 328.206958 364.967649 376.20008 308.226746"></polygon>
            <polygon id="Path-209" fill="#1368A4" points="297.925222 368.019001 302.431094 317.652244 334.786895 319.818373"></polygon>
            <polygon id="Path-210" fill="#1368A4" points="297.925222 368.019001 334.786895 319.818373 376.20008 308.226746"></polygon>
            <polygon id="Path-211" fill="#1368A4" points="302.25785 316.57988 334.786895 318.660666 301.112547 285.497983"></polygon>
            <polygon id="Path-212" fill="#1368A4" points="334.786895 318.660666 376.20008 307.55499 339.572065 268.780645"></polygon>
            <polygon id="Path-213" fill="#1368A4" points="301.112547 285.497983 339.572065 268.780645 334.786895 318.660666"></polygon>
            <polygon id="Path-214" fill="#1368A4" points="301.112547 284.916426 281.506838 266.55488 281.506838 253.693916"></polygon>
            <polygon id="Path-215" fill="#1368A4" points="281.506838 253.693916 310.15367 242.273577 301.112547 284.916426"></polygon>
            <polygon id="Path-216" fill="#1368A4" points="310.15367 242.273577 301.112547 284.916426 339.020887 268.268556"></polygon>
            <polygon id="Path-217" fill="#1368A4" points="339.020887 268.268556 339.020887 255.374782 310.15367 242.273577"></polygon>
            <polygon id="Path-218" fill="#1368A4" points="311.717877 242.273577 343.520781 242.273577 372.986314 250.908442"></polygon>
            <polygon id="Path-219" fill="#1368A4" points="372.986314 250.908442 339.572065 254.906346 311.717877 242.273577"></polygon>
            <polygon id="Path-220" fill="#1368A4" points="373.945938 251.313886 400.351074 266.70518 376.945843 308.066981"></polygon>
            <polygon id="Path-221" fill="#1368A4" points="376.945843 307.066981 339.783184 268.031902 373.945938 251.313886"></polygon>
            <polygon id="Path-222" fill="#1368A4" points="373.945938 251.313886 339.783184 255.534781 339.783184 268.031902"></polygon>
            <polygon id="Path-223" fill="#2E82A6" points="330.022139 365.209939 376.945843 309.353104 400.351074 333.446348"></polygon>
            <polygon id="Path-224" fill="#2E82A6" points="376.945843 309.353104 401.881898 265.364758 437.454843 335.751644"></polygon>
            <polygon id="Path-225" fill="#2E82A6" points="437.454843 335.751644 376.945843 309.353104 400.351074 333.446348"></polygon>
            <polygon id="Path-227" fill="#2E82A6" points="420.566676 276.311107 435.106696 262.225823 386.418808 256.327858"></polygon>
            <polygon id="Path-228" fill="#2E82A6" points="400.351074 333.446348 409.601225 389.921029 415.38276 334.340357"></polygon>
            <polygon id="Path-229" fill="#2E82A6" points="400.351074 333.446348 372.647835 345.997016 357.380615 388.431156"></polygon>
            <polygon id="Path-230" fill="#2E82A6" points="400.351074 333.446348 409.601225 389.921029 357.380615 388.431156"></polygon>
            <polygon id="Path-231" fill="#2E82A6" points="409.601225 389.921029 368.24037 442.718641 370.036831 410.106337"></polygon>
            <polygon id="Path-232" fill="#2E82A6" points="409.601225 389.921029 357.380615 388.431156 341.654325 424.578225"></polygon>
            <polygon id="Path-233" fill="#2E82A6" points="370.036831 410.106337 341.654325 424.578225 339.553993 448.744511"></polygon>
            <polygon id="Path-234" fill="#2E82A6" points="368.24037 442.718641 370.036831 410.106337 339.553993 448.744511"></polygon>
            <polygon id="Path-235" fill="#2E82A6" points="368.24037 442.718641 354.795412 462.529217 339.553993 448.744511"></polygon>
            <polygon id="Path-236" fill="#2E82A6" points="354.795412 462.529217 341.325074 460.877503 339.553993 448.744511"></polygon>
            <polygon id="Path-237" fill="#2E82A6" points="435.106696 262.225823 437.454843 235.264462 386.418808 256.327858"></polygon>
            <polygon id="Path-238" fill="#2E82A6" points="437.454843 235.264462 423.095482 216.200147 411.936826 245.924295"></polygon>
            <polygon id="Path-239" fill="#2E82A6" points="386.418808 256.327858 423.095482 216.200147 411.936826 245.924295"></polygon>
            <polygon id="Path-240" fill="#2E82A6" points="423.095482 216.200147 378.533987 218.652675 389.58741 229.805004"></polygon>
            <polygon id="Path-241" fill="#2E82A6" points="423.095482 216.200147 389.58741 229.805004 386.418808 256.327858"></polygon>
            <polygon id="Path-242" fill="#2E82A6" points="389.58741 229.805004 377.386315 230.600437 378.533987 218.652675"></polygon>
            <polygon id="Path-243" fill="#2E82A6" points="423.095482 216.200147 400.351074 211.304046 378.533987 218.652675"></polygon>
            <polygon id="Path-244" fill="#2E82A6" points="420.566676 276.311117 453.402141 284.31946 437.454843 335.751644"></polygon>
            <polygon id="Path-245" fill="#2E82A6" points="420.566676 276.311117 401.881898 265.364758 437.454843 335.751644"></polygon>
            <polygon id="Path-246" fill="#2E82A6" points="453.402141 284.31946 501.604553 300.558201 444.395496 313.397186"></polygon>
            <polygon id="Path-247" fill="#2E82A6" points="437.454843 335.751644 465.593932 347.874584 444.395496 313.397186"></polygon>
            <polygon id="Path-248" fill="#2E82A6" points="465.593932 347.874584 473.000024 324.535704 444.395496 313.397186"></polygon>
            <polygon id="Path-249" fill="#2E82A6" points="444.395496 313.397186 501.604553 300.558201 473.000024 324.535704"></polygon>
            <polygon id="Path-250" fill="#2E82A6" points="465.593932 347.874584 513.206687 345.921332 473.000024 324.535704"></polygon>
            <polygon id="Path-251" fill="#2E82A6" points="513.206687 345.921332 514.505253 319.66514 473.000024 324.535704"></polygon>
            <polygon id="Path-252" fill="#2E82A6" points="514.505253 319.66514 501.604553 300.558201 473.000024 324.535704"></polygon>
            <polygon id="Path-253" fill="#69A5FF" points="495.778086 231.062221 497.9491 251.313886 489.40031 246.591009"></polygon>
            <polygon id="Path-254" fill="#69C2FF" points="485.582076 241.188054 480.239533 218.652675 489.40031 229.805004"></polygon>
            <polygon id="Path-255" fill="#69A5FF" points="497.9491 223.002575 493.752638 202.202825 489.40031 211.304046"></polygon>
            <polygon id="Path-256" fill="#69C2FF" points="475.647004 212.6027 480.239533 186.598665 469.07432 183.546422"></polygon>
            <polygon id="Path-257" fill="#66A4FF" points="477.126156 167.664921 493.752638 185.86058 487.198407 157.957984"></polygon>
            <polygon id="-" fill="#000000" points="476.658057 310.642743 491.883355 315.618016 489.40031 308.066981"></polygon>
        </g>
    </g>
</svg>