<?xml version="1.0" encoding="UTF-8"?>
<svg width="144px" height="125px" viewBox="0 0 144 125" version="1.1" xmlns="http://www.w3.org/2000/svg" xmlns:xlink="http://www.w3.org/1999/xlink">
    <!-- Generator: Sketch 58 (84663) - https://sketch.com -->
    <title>Group</title>
    <desc>Created with Sketch.</desc>
    <defs>
        <radialGradient cx="48.3933191%" cy="18.7988583%" fx="48.3933191%" fy="18.7988583%" r="76.3878852%" gradientTransform="translate(0.483933,0.187989),scale(0.849278,1.000000),rotate(92.282025),translate(-0.483933,-0.187989)" id="radialGradient-1">
            <stop stop-color="#883C00" offset="0%"></stop>
            <stop stop-color="#D78A03" offset="100%"></stop>
        </radialGradient>
    </defs>
    <g id="Page-1" stroke="none" stroke-width="1" fill="none" fill-rule="evenodd">
        <g id="dog-hot-dog-mockup" transform="translate(-256.000000, -329.000000)">
            <g id="dog" transform="translate(76.000000, 250.000000)">
                <g id="Group" transform="translate(180.000000, 79.000000)">
                    <path d="M67.4807106,107.560128 C82.7492902,107.560128 101.070008,124.547645 111.782705,119.066104 C132.204185,108.616712 143.682722,89.4405186 143.682722,66.238317 C143.682722,26.5853823 113.891569,1.13686838e-13 69.5166901,1.13686838e-13 C25.141811,1.13686838e-13 9.9475983e-14,30.864707 9.9475983e-14,66.238317 C9.9475983e-14,88.4015558 10.7822828,108.543191 29.7499996,120.496049 C41.0556839,127.620536 50.9087909,107.560128 67.4807106,107.560128 Z" id="Oval" fill="url(#radialGradient-1)"></path>
                    <path d="M68.4513083,115.246551 C72.6247764,118.856468 76.302758,121.116477 79.4852532,122.026579 C90.4335334,125.157471 103.936479,125.193317 111.183009,119.620692 C122.857132,110.643221 129.382548,97.9912005 129.382548,84.7185088 C129.382548,72.8393742 123.392107,60.7402089 113.011585,51.3119595 C112.675578,51.0067773 117.056735,53.4730647 118.678918,55.1522596 C122.592165,59.2030359 127.684738,63.0700352 126.982823,62.5126355 C126.324181,61.989599 115.792909,48.0381114 109.511582,46.8105161 C104.670125,45.8643228 106.846317,46.3931798 106.299437,46.0192648 C104.10022,44.5156048 101.765743,43.1198069 99.3056988,41.8493769 C97.0040566,40.6607498 116.597855,44.211324 113.979733,43.2565198 C112.714527,42.7951114 106.330577,38.1297203 99.3056988,36.7736296 C95.9310301,36.1221797 87.6166033,36.3880506 86.9552404,36.2093126 C84.0554394,35.425621 79.6542753,35.4208525 76.5755599,34.8834824 C75.7744525,34.7436543 76.2186803,33.4846387 79.4852532,33.1606259 C84.7702117,32.6364084 94.0934209,34.3713025 92.4538623,33.1606259 C91.6900851,32.5966404 83.4926502,29.1009076 76.5755599,29.3869794 C71.9147732,29.5797368 59.3571673,37.1201648 58.496238,37.1410481 C52.900413,37.2767842 48.4484489,32.403085 43.7807665,33.3554669 C42.8146829,33.5525841 35.8062066,32.6966993 31.4697175,33.3554669 C25.4630404,34.2679571 21.7106011,36.7644538 20.4989983,37.1410481 C18.4913045,37.7650861 36.1138769,35.996887 34.3030506,36.7736296 C32.4613826,37.5636017 26.1947273,38.7528499 19.0853001,42.4498298 C11.9758729,46.1468096 7.62348057,53.573949 6.17457564,54.5175453 C4.64291316,55.5150372 9.78061478,52.5964322 13.2118904,50.1911531 C15.4808124,48.6006685 18.7297135,46.2758298 18.1480948,46.8105161 C8.32858076,55.8376667 3.75624157,67.7417088 3.75624157,80.0823445 C3.75624157,93.9339816 12.1401722,108.521119 25.9341573,118.814913 C30.5434002,122.254571 44.4799299,123.737209 54.1922382,122.026579 C58.2112684,121.318707 62.9642917,119.058698 68.4513083,115.246551 Z" id="Oval" fill="#FBEFD6"></path>
                    <path d="M65.4628025,113.142788 L68.7523013,116.015774 C54.5591243,123.804863 42.2777118,125.808464 31.9080638,122.026579 C19.5474673,118.232384 10.1635266,107.068247 3.75624157,88.5341677 C10.8558344,105.453609 20.5876559,115.665452 32.9517061,119.169697 C45.3157562,122.673942 56.1527884,120.664972 65.4628025,113.142788 Z" id="Path-45" fill="#BCA584"></path>
                    <path d="M122.467756,112.204218 C114.200356,118.21349 108.265708,121.713236 104.663814,122.703454 C95.3868701,125.253836 84.162294,124.42 75.3167678,120.453579 C61.3196548,114.177137 55.6383934,101.590141 58.2729835,82.6925932 C60.6115942,101.947484 66.7445116,113.714962 76.6717357,117.995028 C86.5989597,122.275093 101.8643,120.344823 122.467756,112.204218 Z" id="Path-46" fill="#BCA584"></path>
                    <path d="M57.6469744,93.162305 C54.8963383,88.5381882 53.3658925,83.9223418 53.055637,79.3147657 C52.7453816,74.7071896 53.479097,67.4908644 55.2567833,57.66579 C51.953439,65.050444 50.3017669,72.0050568 50.3017669,78.5296284 C50.3017669,85.0542 53.0936439,92.5322377 58.6773978,100.963741 L57.6469744,93.162305 Z" id="Path-47" fill="#BCA584"></path>
                    <path d="M47.596181,22.9281297 C46.5364625,29.5371333 48.8342629,32.8416351 54.4895823,32.8416351 C60.1449017,32.8416351 67.4486865,30.0447354 76.4009366,24.4509362 C71.7812966,33.4676255 64.4775119,37.57519 54.4895823,36.7736296 C44.5016528,35.9720693 42.2038523,31.3569026 47.596181,22.9281297 Z" id="Path-48" fill="#4F2803"></path>
                </g>
            </g>
        </g>
    </g>
</svg>