<?xml version="1.0" encoding="UTF-8"?>
<svg width="262px" height="262px" viewBox="0 0 262 262" version="1.1" xmlns="http://www.w3.org/2000/svg" xmlns:xlink="http://www.w3.org/1999/xlink">
    <!-- Generator: Sketch 58 (84663) - https://sketch.com -->
    <title>Group</title>
    <desc>Created with Sketch.</desc>
    <g id="Page-1" stroke="none" stroke-width="1" fill="none" fill-rule="evenodd">
        <g id="Artboard" transform="translate(-33.000000, -32.000000)" fill="#FFB401" fill-rule="nonzero" stroke="#000000" stroke-width="2">
            <g id="Group" transform="translate(34.000000, 33.000000)">
                <path d="M130,0 C201.797017,0 260,58.2029825 260,130 C260,201.797017 201.797017,260 130,260 C58.2029825,260 0,201.797017 0,130 C0,58.2029825 58.2029825,0 130,0 Z M212.828443,59.0588697 L212.717324,59.1959804 C212.469787,59.5054018 212.219672,59.8251376 211.966977,60.1551881 L211.586,60.658 C210.181993,62.5300094 208.622009,64.7139875 206.906,67.21 C206.125996,68.4580062 205.151006,71.1879789 203.981,75.4 C202.861864,79.4288897 201.67138,84.3497732 200.409515,90.1627866 L199.76576,93.16336 C198.579564,98.738075 197.332654,104.828908 196.025,111.436 C194.542993,118.924037 193.100007,126.567961 191.696,134.368 C190.467494,141.193034 189.298722,147.898542 188.189658,154.484678 L187.718,157.3 C186.616818,163.907092 185.637103,169.997925 184.778832,175.57264 L184.085691,180.136462 C183.392978,184.759851 182.819705,188.786038 182.365859,192.215096 L182.063389,194.552805 C181.637508,197.932816 181.416683,200.141063 181.40091,201.1776 L181.4,201.292 C181.4,203.632012 181.789996,205.737991 182.57,207.61 C183.350004,209.482009 184.285995,211.041994 185.378,212.29 C186.626006,213.850008 188.029992,215.097995 189.59,216.034 L135.77,216.034 C136.706005,215.409997 137.485997,214.630005 138.11,213.694 C138.734003,212.913996 139.318997,211.861007 139.865,210.535 C140.411003,209.208993 140.684,207.610009 140.684,205.738 L140.678516,205.476578 C140.652922,204.802609 140.537751,203.680758 140.333,202.111 L140.216692,201.255306 C139.988231,199.635766 139.676002,197.737011 139.28,195.559 L137.759,187.252 C137.212997,184.287985 136.628003,181.324015 136.004,178.36 L135.253417,174.577935 C134.07451,168.592715 132.842712,162.131446 131.558,155.194 L130.739403,159.347714 C129.477367,165.718349 128.268241,171.665737 127.112,177.19 C126.019995,182.240525 125.04744,187.201407 124.194314,192.072759 L123.836,194.155 C122.899995,199.693028 122.354001,203.47599 122.198,205.504 L122.198,206.674 C122.198,208.546009 122.392998,210.066994 122.783,211.237 C123.173002,212.407006 123.679997,213.381996 124.304,214.162 C124.928003,214.942004 125.629996,215.565998 126.41,216.034 L72.122,216.034 C73.9940094,214.785994 75.7099922,213.382008 77.27,211.822 C78.5180062,210.573994 79.7269942,209.092009 80.897,207.376 C82.0670059,205.659991 82.652,203.78801 82.652,201.76 L82.6422098,201.467197 C82.5573614,200.03576 81.9209977,196.490193 80.7331042,190.830415 L80.2385754,188.502581 C78.9826131,182.662117 77.4114828,175.876171 75.5251499,168.144595 L72.7329978,156.740991 C71.8128884,152.969554 70.8691881,149.086059 69.9018926,145.090488 L66.8877651,132.611368 C64.632778,123.312075 62.4385401,114.498689 60.305,106.171 L58.7449961,100.063874 C57.3207735,94.4706628 56.0357066,89.3722301 54.8897799,84.7685147 L50.828,68.38 C50.2543205,66.4294896 49.5962622,64.6266745 48.8538141,62.9715263 C33.9341096,81.4276817 25,104.920504 25,130.5 C25,189.870611 73.1293894,238 132.5,238 C191.870611,238 240,189.870611 240,130.5 C240,103.075995 229.730978,78.0504489 212.828443,59.0588697 Z M132.5,23 C103.978219,23 78.0507598,34.1076092 58.807425,52.2330241 L78.557,52.234 C81.5990152,52.234 84.2601813,52.204707 86.5405571,52.1461201 L90.9968229,52.0179148 C91.4904772,52.0059716 91.8288686,52 92.012,52 C90.9199945,52.7800039 89.9840039,53.6379953 89.204,54.574 C88.4239961,55.3540039 87.7610027,56.3679938 87.215,57.616 C86.6689973,58.8640062 86.396,60.3459914 86.396,62.062 L86.396,63.466 L87.449,69.667 C87.9307671,72.4887788 88.5339799,75.7963286 89.2586529,79.589728 L90.0838411,83.856766 C90.807681,87.5633256 91.6063956,91.5693785 92.48,95.875 C93.5720055,101.257027 94.7419938,106.677973 95.99,112.138 L96.8558626,116.345537 C99.2983415,128.159973 102.051699,141.031359 105.116,154.96 L129.92,55.276 L156.128,152.386 L157.660048,142.254714 C159.234525,131.774012 160.673833,121.969166 161.978,112.84 L162.914001,106.699836 C163.226,104.6656 163.537999,102.643847 163.849999,100.634567 L164.73572,94.9380257 C165.145704,92.276999 165.532479,89.7088125 165.896049,87.2334434 L167.628816,75.2728818 L168.062,72.358 C168.530002,69.2379844 168.919998,66.976007 169.232,65.572 C169.388001,64.7919961 169.466,63.7780062 169.466,62.53 C169.466,60.5019899 169.193003,58.8250066 168.647,57.499 C168.100997,56.1729934 167.438004,55.1200039 166.658,54.34 C165.877996,53.4039953 164.942005,52.7020023 163.85,52.234 L206.192575,52.2330241 C186.94924,34.1076092 161.021781,23 132.5,23 Z" id="Combined-Shape"></path>
            </g>
        </g>
    </g>
</svg>