<?xml version="1.0" encoding="UTF-8"?>
<svg width="165px" height="222px" viewBox="0 0 165 222" version="1.1" xmlns="http://www.w3.org/2000/svg" xmlns:xlink="http://www.w3.org/1999/xlink">
    <!-- Generator: Sketch 58 (84663) - https://sketch.com -->
    <title>Group 2</title>
    <desc>Created with Sketch.</desc>
    <defs>
        <linearGradient x1="45.1104053%" y1="93.0327932%" x2="33.7219605%" y2="3.54772651%" id="linearGradient-1">
            <stop stop-color="#CD6100" offset="0%"></stop>
            <stop stop-color="#9F3200" offset="100%"></stop>
        </linearGradient>
        <linearGradient x1="96.8497454%" y1="66.1445447%" x2="8.37091726%" y2="53.4883606%" id="linearGradient-2">
            <stop stop-color="#D56800" offset="0%"></stop>
            <stop stop-color="#6E3503" offset="100%"></stop>
        </linearGradient>
    </defs>
    <g id="Page-1" stroke="none" stroke-width="1" fill="none" fill-rule="evenodd">
        <g id="dog-hot-dog-mockup" transform="translate(-75.000000, -250.000000)">
            <g id="dog" transform="translate(76.000000, 250.000000)">
                <g id="Group-2">
                    <path d="M144.152866,91.6837798 C146.935117,92.4191581 149.323459,93.6716532 151.317894,95.4412649 C159.132072,102.374591 159.918214,102.095868 161.694553,102.235229 C163.470892,102.374591 167.287029,97.7921142 158.030123,89.6046207 C156.063287,87.8650053 153.453355,86.9126863 150.200326,86.7476636 L144.152866,91.6837798 Z" id="Path-55" fill="#EF4F4F"></path>
                    <path d="M100.280255,41.6499151 C87.1813928,13.2406798 77.8555751,-0.63518884 72.3028018,0.0223091978 C66.7500286,0.679807235 64.758293,16.5072618 66.3275952,47.5046729 L100.280255,41.6499151 Z" id="Path-54" fill="url(#linearGradient-1)"></path>
                    <path d="M105.924413,120.827103 C107.170372,108.278755 108.690908,101.534332 110.48602,100.593834 C112.765102,99.3997733 136.127686,97.9407342 152.156727,85.5061587 C159.488556,79.8184715 162.981506,64.9299776 161.622492,61.4968033 C161.033862,60.0097936 148.252681,60.0097936 125.675309,58.1025845 C119.60011,57.5893858 111.726658,43.2454381 105.231012,41.3079077 C100.614487,39.9312963 95.5406727,39.2429907 90.0095696,39.2429907 L27.1592357,95.1781578 L105.924413,120.827103 Z" id="Path-50" stroke="#BCA584" stroke-width="2" fill="#FBEFD6"></path>
                    <path d="M73.8253223,185.88785 C74.2033571,189.807455 74.2033571,192.435941 73.8253223,193.773308 C71.8723051,200.682464 69.7247169,203.090521 72.0314194,205.877266 C76.4960885,211.271067 85.884532,212.759767 92.6961179,206.97114 C97.2371751,203.112055 97.2371751,196.084292 92.6961179,185.88785 L73.8253223,185.88785 Z" id="Path-49" stroke="#BCA584" stroke-width="2" fill="#CCBA97" transform="translate(83.566879, 198.280374) scale(-1, 1) translate(-83.566879, -198.280374) "></path>
                    <path d="M2.79347515,196.214953 C3.17150992,200.134558 3.17150992,202.763044 2.79347515,204.100411 C0.84045798,211.009566 -1.30713021,213.417624 0.999572293,216.204369 C5.46424137,221.59817 14.8526849,223.08687 21.6642707,217.298242 C26.205328,213.439158 26.205328,206.411395 21.6642707,196.214953 L2.79347515,196.214953 Z" id="Path-49" stroke="#BCA584" stroke-width="2" fill="#EBDDC2"></path>
                    <path d="M58.1565325,196.214953 C58.5345672,200.134558 58.5345672,202.763044 58.1565325,204.100411 C56.2035153,211.009566 54.0559271,213.417624 56.3626296,216.204369 C60.8272987,221.59817 70.2157422,223.08687 77.0273281,217.298242 C81.5683853,213.439158 81.5683853,206.411395 77.0273281,196.214953 L58.1565325,196.214953 Z" id="Path-49" stroke="#BCA584" stroke-width="2" fill="#EBDDC2" transform="translate(67.898089, 208.607477) scale(-1, 1) translate(-67.898089, -208.607477) "></path>
                    <path d="M41.2658377,83.7474814 L49.531037,73.1886613 C38.86135,66.6150017 32.1007274,60.3658943 29.2491692,54.441339 C19.1568707,33.4730205 20.3646245,9.32147305 27.682351,8.37419761 C38.1014904,7.02544607 54.7669911,17.8025766 77.678853,40.7055893 C85.3861979,38.4325255 91.0465981,37.432625 94.6600536,37.7058879 C114.013751,39.1694861 122.305838,52.4744656 117.949084,64.542353 C109.648938,78.2422278 98.2972177,85.643998 83.8939238,86.7476636 C72.3389372,82.891811 63.9980776,80.4712755 58.871345,79.4860568 C53.7446124,78.5008381 47.87611,79.921313 41.2658377,83.7474814 Z" id="Path-53" fill="url(#linearGradient-2)"></path>
                    <path d="M153.55414,85.9971292 C151.886557,87.3168727 150.481219,88.3681976 149.338126,89.1511038 C148.195033,89.93401 146.711123,90.8775648 144.886396,91.9817681 C133.437697,93.2646443 125.881036,93.2646443 122.216412,91.9817681 C111.077425,88.0823389 105.070778,78.8241429 108.603515,77.5446157 C112.136252,76.2650885 114.169855,88.8307609 127.026856,90.0452012 C137.512246,91.0356249 146.354674,89.6862676 153.55414,85.9971292 Z" id="Path-51" fill="#000000"></path>
                    <path d="M161.488416,73.3224299 C155.056104,71.5186981 150.865263,69.6726137 148.915892,67.7841769 C146.96652,65.89574 146.766424,62.9333189 148.315602,58.8969136 C157.480732,58.7101808 162.561627,59.3299172 163.558288,60.7561227 C164.554949,62.1823283 163.864991,66.3710973 161.488416,73.3224299 Z" id="Path-52" fill="#000000"></path>
                    <ellipse id="Oval" fill="#FFFFFF" cx="103.414013" cy="60.9299065" rx="5.22292994" ry="5.1635514"></ellipse>
                    <ellipse id="Oval" fill="#000000" cx="100.802548" cy="60.4135514" rx="4.70063694" ry="6.71261682"></ellipse>
                    <path d="M151.464968,90.8785047 C153.922372,91.8551661 155.686254,92.8064554 156.756614,93.7323724 C157.826973,94.6582894 158.848654,96.1166575 159.821656,98.1074766" id="Path-56" stroke="#000000"></path>
                </g>
            </g>
        </g>
    </g>
</svg>