<?xml version="1.0" encoding="UTF-8"?>
<svg width="387px" height="178px" viewBox="0 0 387 178" version="1.1" xmlns="http://www.w3.org/2000/svg" xmlns:xlink="http://www.w3.org/1999/xlink">
    <!-- Generator: Sketch 58 (84663) - https://sketch.com -->
    <title>millennium-falcon</title>
    <desc>Created with Sketch.</desc>
    <g id="Page-1" stroke="none" stroke-width="1" fill="none" fill-rule="evenodd">
        <g id="star-wars-mockup" transform="translate(-206.000000, -291.000000)">
            <g id="millennium-falcon" transform="translate(207.000000, 292.000000)">
                <path d="M337.124481,150.8 L343,161.6 L322.435685,173.3 C317.213001,176.9 307.094053,176.9 292.078838,173.3 C277.063623,169.7 215.370677,153.5 107,124.7 L151.06639,113 L321.456432,161.6 L337.124481,150.8 Z" id="Path-83" stroke="#000000" fill="#5B5B5B" fill-rule="nonzero"></path>
                <path d="M384.279424,124.272727 C385.499444,131.341967 385.170236,136.346295 383.291803,139.285714 C381.41337,142.225134 376.475261,145.463228 368.477476,149 L360.576502,149 L300.331575,115.441558 L279.591518,126.038961 L247,112.792208 L302.306818,81 L384.279424,124.272727 Z" id="Path-82" stroke="#000000" fill="#5B5B5B" fill-rule="nonzero"></path>
                <path d="M372,131 L365,149" id="Line-7" stroke="#000000" stroke-linecap="square"></path>
                <path d="M295.546218,45 C297.512605,46.7959184 299.478992,49.7891157 301.445378,53.9795918 C303.411765,58.170068 331.596638,81.8163265 386,124.918367 L368.302521,133 L269,84.5102041 L295.546218,45 Z" id="Path-80" stroke="#000000" fill="#C4C4C4" fill-rule="nonzero"></path>
                <polygon id="Path-81" stroke="#000000" fill="#C4C4C4" fill-rule="nonzero" points="235.714286 106 338 151.5 322.263736 162 159 123.5"></polygon>
                <path d="M147.090615,129 C228.326519,129 301,100.122366 301,64.5 C301,28.8776336 228.326519,0 147.090615,0 C65.8547115,0 0,28.8776336 0,64.5 C0,100.122366 65.8547115,129 147.090615,129 Z" id="Oval" stroke="#000000" stroke-width="2" fill="#C4C4C4" fill-rule="nonzero"></path>
                <path d="M182.14346,29.8979592 L280.455696,29 L296.185654,44.2653061 L277.506329,84.6734694 L307,101.734694 L277.506329,117 L237.198312,101.734694 C204.48534,110.075549 177.613328,113.667386 156.582278,112.510204 C135.551229,111.353022 108.023802,104.767987 74,92.755102 L138.886076,42.4693878 L182.14346,29.8979592 Z" id="Path-76" stroke="#000000" fill="#C4C4C4" fill-rule="nonzero"></path>
                <ellipse id="Oval" stroke="#000000" fill="#D8D8D8" fill-rule="nonzero" cx="256.5" cy="44" rx="10.5" ry="9"></ellipse>
                <path d="M35,93 C41,90.3333333 47,87.6666667 53,85" id="Path-65" stroke="#000000"></path>
                <path d="M21,73 C24.3333333,70.666668 27.6666667,68.3333336 31,66" id="Path-66" stroke="#000000"></path>
                <path d="M34.3215749,96 L49.39937,105.603175 L91.2261417,125.68254 L93,151 L49.39937,122.190476 L29,110.84127 C32.1882852,109.589896 33.9621435,107.843864 34.3215749,105.603175 C34.6810061,103.362485 34.6810061,100.161427 34.3215749,96 Z" id="Path-63" stroke="#000000" fill="#959595" fill-rule="nonzero"></path>
                <path d="M31,68 C49.2890163,68.7735963 48.4496566,68.1569648 52,86" id="Path-67" stroke="#000000"></path>
                <ellipse id="Oval" stroke="#000000" fill="#5B5B5B" fill-rule="nonzero" transform="translate(23.188502, 92.159117) rotate(-17.000000) translate(-23.188502, -92.159117) " cx="23.1885022" cy="92.1591173" rx="8.7624098" ry="19.5491294"></ellipse>
                <polyline id="Path-56" stroke="#000000" points="202.5 33 202.5 30.7173791 202.5 26"></polyline>
                <path d="M213.621989,34 C213.540663,31.3333333 213.459337,28.6666666 213.378011,26" id="Path-57" stroke="#000000"></path>
                <path d="M224.732946,33 C224.577648,29.3333333 224.422351,25.6666667 224.267054,22" id="Path-58" stroke="#000000"></path>
                <path d="M236.776131,30 C236.592044,26.3333334 236.407957,22.6666666 236.223869,19" id="Path-59" stroke="#000000"></path>
                <path d="M248.513869,33 C248.504624,27 248.495377,21 248.486131,15" id="Path-60" stroke="#000000"></path>
                <path d="M195,32.5 C217.690611,32.0543872 233.309389,32.9456128 256,32.5 L195,32.5 Z" id="Path-61" stroke="#000000"></path>
                <path d="M49,65 C50,72 51,79 52,86" id="Path-50" stroke="#000000"></path>
                <path d="M61,62 C63.6666666,68 66.3333332,74 69,80" id="Path-51" stroke="#000000"></path>
                <path d="M78,56 C80.3333333,60.6666667 82.6666665,65.3333333 85,70" id="Path-52" stroke="#000000"></path>
                <path d="M101,49 C103.333333,52.6666666 105.666667,56.3333334 108,60" id="Path-53" stroke="#000000"></path>
                <path d="M120,45 C121,47.3333334 122,49.6666666 123,52" id="Path-54" stroke="#000000"></path>
                <polygon id="Path-49" stroke="#000000" fill="#959595" fill-rule="nonzero" points="192.881579 28 259 16 248.144737 10 235.315789 10 184 25"></polygon>
                <ellipse id="Oval" stroke="#000000" stroke-width="2" fill="#959595" fill-rule="nonzero" cx="160" cy="31.5" rx="36" ry="14.5"></ellipse>
                <polygon id="Path-48" stroke="#000000" fill="#959595" fill-rule="nonzero" points="124.086538 33 30 57.3157895 49.8076923 66 133 40.8157895"></polygon>
                <path d="M134,46 L51,85" id="Line-4" stroke="#000000" stroke-linecap="square"></path>
                <path d="M30.5,56 L30.5,70" id="Path-55" stroke="#000000"></path>
                <polygon id="Path-62" stroke="#000000" fill="#959595" fill-rule="nonzero" points="122.268817 54 55 103.875 101.494624 131 147 55.75"></polygon>
                <path d="M142,138.625 L128.215385,113 C109.916749,114.29586 97.7731592,116.573639 91.7846154,119.833333 C85.7960716,123.093028 81.2011997,129.926361 78,140.333333 L86.8615385,152.291667 L124.276923,154 L142,138.625 Z" id="Path-64" stroke="#000000" fill="#5B5B5B" fill-rule="nonzero"></path>
                <path d="M86,122 L117,140" id="Line-2" stroke="#000000" stroke-linecap="square"></path>
                <path d="M79,140 L116,146" id="Line-3" stroke="#000000" stroke-linecap="square"></path>
                <circle id="Oval" stroke="#000000" fill="#5B5B5B" fill-rule="nonzero" cx="129.5" cy="143.5" r="11.5"></circle>
                <path d="M116,115 L127,133" id="Line-5" stroke="#000000" stroke-linecap="square"></path>
                <path d="M98,116 L119,134" id="Line" stroke="#000000" stroke-linecap="square"></path>
                <polygon id="Rectangle" fill="#A60000" fill-rule="nonzero" transform="translate(154.537798, 8.066110) rotate(-45.000000) translate(-154.537798, -8.066110) " points="150.506342 4.91187573 159.711365 5.40534294 158.956345 11.2203434 149.364231 10.7061248"></polygon>
                <path d="M157.397213,33.8491839 L161.570067,36.5918474 L159.909538,47.5760473 C157.647028,46.2697869 155.667332,45.1268088 153.97045,44.1471133 C152.273568,43.1674179 150.157725,41.6071233 147.622921,39.4662293 L157.397213,33.8491839 Z" id="Rectangle" fill="#A60000" fill-rule="nonzero" transform="translate(154.596494, 40.712616) rotate(-30.000000) translate(-154.596494, -40.712616) "></path>
                <path d="M182.307779,24.156931 L186.114547,25.4753128 L182.754069,46.9588407 C181.643421,46.2265919 180.606668,45.4145906 179.64381,44.5228368 C178.680951,43.631083 177.015077,40.9403954 174.646185,36.4507736 L182.307779,24.156931 Z" id="Rectangle" fill="#A70000" fill-rule="nonzero" transform="translate(180.380366, 35.557886) rotate(-80.000000) translate(-180.380366, -35.557886) "></path>
                <polygon id="Rectangle" fill="#A60000" fill-rule="nonzero" transform="translate(154.537798, 8.066110) rotate(-45.000000) translate(-154.537798, -8.066110) " points="150.506342 4.91187573 159.711365 5.40534294 158.956345 11.2203434 149.364231 10.7061248"></polygon>
                <polygon id="Rectangle" fill="#A60000" fill-rule="nonzero" transform="translate(77.940288, 30.451222) rotate(-6.000000) translate(-77.940288, -30.451222) " points="70.7768712 25.9666974 87.6745298 26.145652 85.8142865 34.9357464 68.2060462 34.7492664"></polygon>
                <ellipse id="Oval" stroke="#000000" fill="#525050" fill-rule="nonzero" cx="160.5" cy="28.5" rx="10.5" ry="4.5"></ellipse>
                <polygon id="Rectangle" fill="#A60000" fill-rule="nonzero" transform="translate(304.460802, 91.417978) rotate(24.000000) translate(-304.460802, -91.417978) " points="298.541838 86.3812916 313.040216 87.6324379 310.533664 96.4546647 295.881388 94.9401363"></polygon>
                <polygon id="Rectangle" fill="#A60000" fill-rule="nonzero" transform="translate(257.435421, 124.857978) rotate(24.000000) translate(-257.435421, -124.857978) " points="251.516457 119.821292 266.014835 121.072438 263.508283 129.894665 248.856008 128.380136"></polygon>
                <path d="M322.5,163 L322.5,174" id="Path-84" stroke="#000000"></path>
                <polygon id="Rectangle" fill="#A60000" fill-rule="nonzero" points="141 68 156 68 156 74 138 74"></polygon>
                <polygon id="Rectangle" fill="#A60000" fill-rule="nonzero" points="138.5 74 156 74 156 80 135 80"></polygon>
                <path d="M119,31 L10,42" id="Path-68" stroke="#000000"></path>
                <polygon id="Path-69" stroke="#000000" points="162 72 162 81 183 81 177.272727 72"></polygon>
                <path d="M151,18 L171,0" id="Path-70" stroke="#000000"></path>
                <path d="M151,18 L171,0" id="Path-70" stroke="#000000"></path>
                <ellipse id="Oval" stroke="#000000" fill="#959595" fill-rule="nonzero" cx="270" cy="33" rx="17" ry="23"></ellipse>
                <polygon id="Triangle-2" stroke="#000000" fill="#D8D8D8" fill-rule="nonzero" points="276.706337 30.8679437 287 28 276.706337 30.8679437 279.60583 31.463277 270.128974 36 269 29.2856535"></polygon>
                <path d="M276,12 L272,30" id="Line-6" stroke="#000000" stroke-linecap="square"></path>
                <path d="M269,30 L259,16" id="Path-72" stroke="#000000"></path>
                <path d="M269,33 L255,34" id="Path-73" stroke="#000000"></path>
                <path d="M269,35 L260,53" id="Path-74" stroke="#000000"></path>
                <path d="M282,48 L272,37" id="Path-75" stroke="#000000"></path>
                <path d="M239.069565,101 L167,46.5405405 C175.435411,44.2405124 181.278889,42.4837556 184.530435,41.2702703 C187.78198,40.0567849 191.352995,38.3000282 195.243478,36 L279,84.3108108" id="Path-77" stroke="#000000"></path>
                <polygon id="Path-78" stroke="#000000" points="196.709402 41 180 49.8461538 274.358974 110 295 96.7307692"></polygon>
                <polygon id="Path-79" stroke="#000000" points="196.93617 46 191 48.625 275.095745 102 284 95.875"></polygon>
                <path d="M322.5,163 L322.5,174" id="Path-84" stroke="#000000"></path>
                <path d="M322.5,163 L322.5,174" id="Path-84" stroke="#000000"></path>
                <polyline id="Path-85" stroke="#000000" points="330 148.296296 323.145833 156 252.645833 137.703704 249.708333 142.518519 236 138.666667 242.854167 130 255.583333 133.851852 252.645833 137.703704"></polyline>
                <polyline id="Path-86" stroke="#000000" points="363.755102 129 376 123.734694 326 86"></polyline>
                <polyline id="Path-86" stroke="#000000" points="206.755102 103 219 97.7346939 169 60"></polyline>
                <polyline id="Path-87" stroke="#000000" points="210 41 274.166667 76 287 56.75"></polyline>
                <path d="M137,88 L125,103.652174 C131.69571,104.88351 137.029044,105.753075 141,106.26087 C144.970956,106.768664 150.970956,107.348374 159,108" id="Path-88" stroke="#000000"></path>
                <path d="M23,37 C23,37 42.199264,23.1239964 82.0625,13 C94.0645607,9.9518576 116.377061,7.28519093 149,5" id="Path-89" stroke="#000000"></path>
                <polyline id="Path-90" stroke="#000000" points="109 7 109 15 144 10.5555556"></polyline>
                <path d="M15,48 C10.6698894,55.2495318 8.34953941,60.8151882 8.03895005,64.6969697 C7.7283607,68.5787512 9.27526069,72.679761 12.67965,77" id="Path-91" stroke="#000000"></path>
                <polyline id="Path-92" stroke="#000000" points="92 18 91 32 117 30.3529412"></polyline>
                <path d="M165,12 L171.122449,7 C177.670044,7.5542602 183.792493,8.220927 189.489796,9 C195.1871,9.779073 203.6905,11.1124064 215,13" id="Path-93" stroke="#000000"></path>
            </g>
        </g>
    </g>
</svg>